<?xml version="1.0" encoding="utf-8"?>
<!-- Generator: Adobe Illustrator 18.0.0, SVG Export Plug-In . SVG Version: 6.00 Build 0)  -->
<!DOCTYPE svg PUBLIC "-//W3C//DTD SVG 1.1 Basic//EN" "http://www.w3.org/Graphics/SVG/1.1/DTD/svg11-basic.dtd">
<svg version="1.1" baseProfile="basic" id="Arrow_1_"
	 xmlns="http://www.w3.org/2000/svg" xmlns:xlink="http://www.w3.org/1999/xlink" x="0px" y="0px" width="500px" height="500px"
	 viewBox="0 0 500 500" xml:space="preserve">
  <metadata>
    <?xpacket begin="﻿" id="W5M0MpCehiHzreSzNTczkc9d"?>
    <x:xmpmeta xmlns:x="adobe:ns:meta/" x:xmptk="Adobe XMP Core 5.6-c011 79.156380, 2014/06/19-23:40:37        ">
     <rdf:RDF xmlns:rdf="http://www.w3.org/1999/02/22-rdf-syntax-ns#">
      <rdf:Description rdf:about=""
        xmlns:xmpMM="http://ns.adobe.com/xap/1.0/mm/"
        xmlns:stEvt="http://ns.adobe.com/xap/1.0/sType/ResourceEvent#"
        xmlns:xmp="http://ns.adobe.com/xap/1.0/"
        xmlns:xmpRights="http://ns.adobe.com/xap/1.0/rights/"
        xmlns:dc="http://purl.org/dc/elements/1.1/"
       xmpMM:DocumentID="xmp.did:946a90e1d6ff6bcd8887975264f461d7"
       xmpMM:OriginalDocumentID="xmp.did:946a90e1d6ff6bcd8887975264f461d7"
       xmpMM:InstanceID="xmp.iid:946a90e1d6ff6bcd8887975264f461d7"
       xmp:ModifyDate="2015-04-10T15:38:34+02:00"
       xmp:MetadataDate="2015-04-10T15:38:34+02:00"
       xmpRights:Marked="True"
       xmpRights:WebStatement="http://www.adobe.com/legal/general-terms.html">
       <xmpMM:History>
        <rdf:Seq>
         <rdf:li
          stEvt:action="saved"
          stEvt:instanceID="xmp.iid:946a90e1d6ff6bcd8887975264f461d7"
          stEvt:when="2015-04-10T15:38:34+02:00"/>
        </rdf:Seq>
       </xmpMM:History>
       <xmpRights:UsageTerms>
        <rdf:Alt>
         <rdf:li xml:lang="x-default">This work is licensed under the Adobe General Terms of Use http://www.adobe.com/legal/general-terms.html.</rdf:li>
        </rdf:Alt>
       </xmpRights:UsageTerms>
       <dc:publisher>
        <rdf:Bag>
         <rdf:li>Adobe Systems Incorporated</rdf:li>
        </rdf:Bag>
       </dc:publisher>
      </rdf:Description>
     </rdf:RDF>
    </x:xmpmeta>
    <?xpacket end="r"?>
  </metadata>
<g>
	<path d="M489.4,245.5L282.3,14.4c-16.8-18.7-47.9-18.6-64.5,0L10.5,245.5c-10.1,11.3-13.1,24-8.2,34.8c2.2,4.9,9.4,16.2,29.3,16.2
		h31.2v203.1h374.5V296.5h31.2c19.9,0,27.2-11.4,29.4-16.3C502.6,269.4,499.5,256.8,489.4,245.5z M312.5,468.4h-125V312.1h125V468.4
		z M406.2,265.3v203.1h-78.1V296.5H171.9v171.8H93.8V265.3h-59L241.1,35.2c5-5.5,13-5.5,17.9,0l206.2,230H406.2z"/>
</g>
</svg>
